<svg width="181" height="38" viewBox="0 0 181 38" fill="none" xmlns="http://www.w3.org/2000/svg">
  <path
    d="M9.032 37.624C6.504 37.624 4.488 36.936 2.984 35.56C1.512 34.184 0.776 32.312 0.776 29.944C0.776 27.736 1.528 25.976 3.032 24.664C4.568 23.352 6.776 22.584 9.656 22.36L16.376 21.832V21.448C16.376 19.048 15.016 17.848 12.296 17.848C9.096 17.848 7.496 18.968 7.496 21.208H1.352C1.352 18.488 2.376 16.312 4.424 14.68C6.504 13.048 9.256 12.232 12.68 12.232C16.168 12.232 18.856 13.176 20.744 15.064C22.632 16.92 23.576 19.56 23.576 22.984V37H17.048L16.568 33.832C16.184 34.92 15.272 35.832 13.832 36.568C12.424 37.272 10.824 37.624 9.032 37.624ZM11.624 32.152C13.096 32.152 14.264 31.8 15.128 31.096C15.992 30.392 16.424 29.368 16.424 28.024V26.728L12.68 27.064C11.08 27.192 9.944 27.464 9.272 27.88C8.632 28.264 8.312 28.84 8.312 29.608C8.312 31.304 9.416 32.152 11.624 32.152ZM35.8378 37H28.8778V0.808H36.2698V15.784C37.0058 14.696 38.0938 13.832 39.5338 13.192C41.0058 12.52 42.6058 12.184 44.3338 12.184C47.6938 12.184 50.3658 13.384 52.3498 15.784C54.3338 18.152 55.3258 21.304 55.3258 25.24C55.3258 28.952 54.2538 31.944 52.1098 34.216C49.9658 36.488 47.1818 37.624 43.7578 37.624C42.0938 37.624 40.5738 37.288 39.1978 36.616C37.8538 35.944 36.8618 35.048 36.2218 33.928L35.8378 37ZM37.9498 20.536C36.8618 21.624 36.3178 23.064 36.3178 24.856C36.3178 26.648 36.8618 28.104 37.9498 29.224C39.0378 30.312 40.4458 30.856 42.1738 30.856C43.9018 30.856 45.2778 30.312 46.3018 29.224C47.3578 28.104 47.8858 26.648 47.8858 24.856C47.8858 23.064 47.3578 21.624 46.3018 20.536C45.2778 19.416 43.9018 18.856 42.1738 18.856C40.4458 18.856 39.0378 19.416 37.9498 20.536ZM65.1781 37L55.8181 13H63.7861L66.7141 21.4C68.0901 25.464 68.8741 28.008 69.0661 29.032C69.3541 27.56 70.2021 25.016 71.6101 21.4L74.8261 13H82.5061L72.4741 37H65.1781ZM83.1185 29.416H90.1265C90.2225 31.208 91.4225 32.104 93.7265 32.104C95.9665 32.104 97.0865 31.416 97.0865 30.04C97.0865 29.112 96.3665 28.488 94.9265 28.168L90.5105 27.208C88.2385 26.728 86.5745 25.944 85.5185 24.856C84.4625 23.736 83.9345 22.152 83.9345 20.104C83.9345 17.672 84.8625 15.752 86.7185 14.344C88.6065 12.936 91.0225 12.232 93.9665 12.232C96.7505 12.232 99.0225 12.984 100.783 14.488C102.543 15.992 103.423 17.944 103.423 20.344H96.4145C96.4145 19.512 96.1585 18.856 95.6465 18.376C95.1665 17.864 94.4945 17.608 93.6305 17.608C92.7985 17.608 92.1265 17.816 91.6145 18.232C91.1345 18.616 90.8945 19.128 90.8945 19.768C90.8945 20.792 91.7585 21.496 93.4865 21.88L97.9505 22.84C99.9985 23.288 101.519 24.024 102.511 25.048C103.535 26.072 104.047 27.512 104.047 29.368C104.047 31.896 103.071 33.912 101.119 35.416C99.1665 36.888 96.6065 37.624 93.4385 37.624C90.3025 37.624 87.7905 36.872 85.9025 35.368C84.0465 33.832 83.1185 31.848 83.1185 29.416ZM106.613 24.904C106.613 21.192 107.765 18.152 110.069 15.784C112.373 13.416 115.317 12.232 118.901 12.232C122.453 12.232 125.333 13.144 127.541 14.968C129.749 16.792 130.965 19.272 131.189 22.408H123.749C123.237 20.04 121.717 18.856 119.189 18.856C117.621 18.856 116.373 19.4 115.445 20.488C114.517 21.576 114.053 23.048 114.053 24.904C114.053 26.824 114.485 28.328 115.349 29.416C116.245 30.472 117.493 31 119.093 31C121.717 31 123.269 29.816 123.749 27.448H131.189C130.933 30.488 129.685 32.952 127.445 34.84C125.237 36.696 122.453 37.624 119.093 37.624C115.317 37.624 112.293 36.472 110.021 34.168C107.749 31.832 106.613 28.744 106.613 24.904ZM142.629 37H135.237V0.808H142.629V37ZM146.447 29.416H153.455C153.551 31.208 154.751 32.104 157.055 32.104C159.295 32.104 160.415 31.416 160.415 30.04C160.415 29.112 159.695 28.488 158.255 28.168L153.839 27.208C151.567 26.728 149.903 25.944 148.847 24.856C147.791 23.736 147.263 22.152 147.263 20.104C147.263 17.672 148.191 15.752 150.047 14.344C151.935 12.936 154.351 12.232 157.295 12.232C160.079 12.232 162.351 12.984 164.111 14.488C165.871 15.992 166.751 17.944 166.751 20.344H159.743C159.743 19.512 159.487 18.856 158.975 18.376C158.495 17.864 157.823 17.608 156.959 17.608C156.127 17.608 155.455 17.816 154.943 18.232C154.463 18.616 154.223 19.128 154.223 19.768C154.223 20.792 155.087 21.496 156.815 21.88L161.279 22.84C163.327 23.288 164.847 24.024 165.839 25.048C166.863 26.072 167.375 27.512 167.375 29.368C167.375 31.896 166.399 33.912 164.447 35.416C162.495 36.888 159.935 37.624 156.767 37.624C153.631 37.624 151.119 36.872 149.231 35.368C147.375 33.832 146.447 31.848 146.447 29.416ZM175.845 37.624C174.629 37.624 173.589 37.208 172.725 36.376C171.861 35.512 171.429 34.488 171.429 33.304C171.429 32.088 171.861 31.064 172.725 30.232C173.589 29.368 174.629 28.936 175.845 28.936C177.029 28.936 178.053 29.368 178.917 30.232C179.813 31.096 180.261 32.12 180.261 33.304C180.261 34.488 179.813 35.512 178.917 36.376C178.053 37.208 177.029 37.624 175.845 37.624Z"
    fill="#161618" />
</svg>